<?xml version="1.0" encoding="UTF-8" standalone="no"?>
<!-- Created with Inkscape (http://www.inkscape.org/) -->

<svg
   xmlns:dc="http://purl.org/dc/elements/1.1/"
   xmlns:cc="http://creativecommons.org/ns#"
   xmlns:rdf="http://www.w3.org/1999/02/22-rdf-syntax-ns#"
   xmlns:svg="http://www.w3.org/2000/svg"
   xmlns="http://www.w3.org/2000/svg"
   xmlns:xlink="http://www.w3.org/1999/xlink"
   xmlns:sodipodi="http://sodipodi.sourceforge.net/DTD/sodipodi-0.dtd"
   xmlns:inkscape="http://www.inkscape.org/namespaces/inkscape"
   id="svg4062"
   height="48"
   width="48"
   version="1.1"
   inkscape:version="0.48.3.1 r9886"
   sodipodi:docname="firefox.svg">
  <sodipodi:namedview
     pagecolor="#ffffff"
     bordercolor="#666666"
     borderopacity="1"
     objecttolerance="10"
     gridtolerance="10"
     guidetolerance="10"
     inkscape:pageopacity="0"
     inkscape:pageshadow="2"
     inkscape:window-width="1366"
     inkscape:window-height="746"
     id="namedview41"
     showgrid="false"
     inkscape:zoom="9"
     inkscape:cx="25.679492"
     inkscape:cy="25.226752"
     inkscape:window-x="0"
     inkscape:window-y="0"
     inkscape:window-maximized="1"
     inkscape:current-layer="svg4062" />
  <defs
     id="defs4064">
    <linearGradient
       id="linearGradient3906-0"
       y2="44.341"
       gradientUnits="userSpaceOnUse"
       x2="71.204"
       gradientTransform="translate(-47.734 -.35724)"
       y1="6.2376"
       x1="71.204">
      <stop
         id="stop4013"
         stop-color="#fff"
         offset="0" />
      <stop
         id="stop4015"
         stop-color="#fff"
         stop-opacity=".23529"
         offset=".50776" />
      <stop
         id="stop4017"
         stop-color="#fff"
         stop-opacity=".15686"
         offset=".83457" />
      <stop
         id="stop4019"
         stop-color="#fff"
         stop-opacity=".39216"
         offset="1" />
    </linearGradient>
    <radialGradient
       id="radialGradient3909-0"
       gradientUnits="userSpaceOnUse"
       cy="8.4498"
       cx="6.2973"
       gradientTransform="matrix(0 1.3402 -1.4178 -3.6478e-8 35.98 -2.8851)"
       r="20">
      <stop
         id="stop3750-8-9"
         stop-color="#90dbec"
         offset="0" />
      <stop
         id="stop3752-3-2"
         stop-color="#42baea"
         offset=".26238" />
      <stop
         id="stop3754-7-2"
         stop-color="#3689e6"
         offset=".70495" />
      <stop
         id="stop3756-9-3"
         stop-color="#2b63a0"
         offset="1" />
    </radialGradient>
    <linearGradient
       id="linearGradient3911-1"
       y2="3.899"
       gradientUnits="userSpaceOnUse"
       x2="24"
       gradientTransform="translate(.00000239 1)"
       y1="44"
       x1="24">
      <stop
         id="stop3760-7-3"
         stop-color="#185f9a"
         offset="0" />
      <stop
         id="stop3762-8-4"
         stop-color="#599ec9"
         offset="1" />
    </linearGradient>
    <radialGradient
       id="radialGradient4060"
       gradientUnits="userSpaceOnUse"
       cy="4.625"
       cx="62.625"
       gradientTransform="matrix(2.1647 0 0 .75294 -111.56 36.518)"
       r="10.625">
      <stop
         id="stop8840"
         offset="0" />
      <stop
         id="stop8842"
         stop-opacity="0"
         offset="1" />
    </radialGradient>
    <radialGradient
       id="radialGradient9914"
       fy="22.504"
       gradientUnits="userSpaceOnUse"
       cy="26.141"
       cx="21.12"
       gradientTransform="matrix(0 1.0014 -1.0999 0 52.752 3.8498)"
       r="20.002">
      <stop
         id="stop9910"
         stop-color="#ffca51"
         offset="0" />
      <stop
         id="stop9926"
         stop-color="#ffbb39"
         offset=".39939" />
      <stop
         id="stop9928"
         stop-color="#ff780b"
         offset=".77552" />
      <stop
         id="stop9912"
         stop-color="#ff6201"
         offset="1" />
    </radialGradient>
    <linearGradient
       id="linearGradient9938"
       y2="44.332"
       gradientUnits="userSpaceOnUse"
       x2="32.438"
       gradientTransform="matrix(.97581 0 0 .97579 .58048 .62059)"
       y1="8.5399"
       x1="21.375">
      <stop
         id="stop9946"
         stop-color="#de6300"
         offset="0" />
      <stop
         id="stop9944"
         stop-color="#d04e00"
         offset="1" />
    </linearGradient>
    <radialGradient
       id="radialGradient9962"
       gradientUnits="userSpaceOnUse"
       cy="24.709"
       cx="23.997"
       gradientTransform="matrix(1.1428 0 0 1.1302 -3.4233 -2.9275)"
       r="19.594">
      <stop
         id="stop9952"
         stop-color="#fff"
         stop-opacity=".15686"
         offset="0" />
      <stop
         id="stop9960"
         stop-color="#fff"
         stop-opacity=".23529"
         offset=".43016" />
      <stop
         id="stop9958"
         stop-color="#fff"
         stop-opacity=".39216"
         offset=".94998" />
      <stop
         id="stop9954"
         stop-color="#fff"
         offset="1" />
    </radialGradient>
    <radialGradient
       inkscape:collect="always"
       xlink:href="#radialGradient4060"
       id="radialGradient3078"
       gradientUnits="userSpaceOnUse"
       gradientTransform="matrix(2.1647,0,0,0.75294,-111.56,36.518)"
       cx="62.625"
       cy="4.625"
       r="10.625" />
    <radialGradient
       inkscape:collect="always"
       xlink:href="#radialGradient3909-0"
       id="radialGradient3080"
       gradientUnits="userSpaceOnUse"
       gradientTransform="matrix(0,1.3402,-1.4178,-3.6478e-8,35.98,-2.8851)"
       cx="6.2973"
       cy="8.4498"
       r="20" />
    <linearGradient
       inkscape:collect="always"
       xlink:href="#linearGradient3911-1"
       id="linearGradient3082"
       gradientUnits="userSpaceOnUse"
       gradientTransform="translate(2.39e-6,1)"
       x1="24"
       y1="44"
       x2="24"
       y2="3.899" />
    <radialGradient
       inkscape:collect="always"
       xlink:href="#radialGradient9914"
       id="radialGradient3084"
       gradientUnits="userSpaceOnUse"
       gradientTransform="matrix(0,1.0014,-1.0999,0,52.752,3.8498)"
       cx="21.12"
       cy="26.141"
       fy="22.504"
       r="20.002" />
    <linearGradient
       inkscape:collect="always"
       xlink:href="#linearGradient9938"
       id="linearGradient3086"
       gradientUnits="userSpaceOnUse"
       gradientTransform="matrix(0.97581,0,0,0.97579,0.58048,0.62059)"
       x1="21.375"
       y1="8.5399"
       x2="32.438"
       y2="44.332" />
    <linearGradient
       inkscape:collect="always"
       xlink:href="#linearGradient3906-0"
       id="linearGradient3088"
       gradientUnits="userSpaceOnUse"
       gradientTransform="translate(-47.734,-0.35724)"
       x1="71.204"
       y1="6.2376"
       x2="71.204"
       y2="44.341" />
    <radialGradient
       inkscape:collect="always"
       xlink:href="#radialGradient9962"
       id="radialGradient3090"
       gradientUnits="userSpaceOnUse"
       gradientTransform="matrix(1.1428,0,0,1.1302,-3.4233,-2.9275)"
       cx="23.997"
       cy="24.709"
       r="19.594" />
    <radialGradient
       inkscape:collect="always"
       xlink:href="#radialGradient9962"
       id="radialGradient3093"
       gradientUnits="userSpaceOnUse"
       gradientTransform="matrix(1.198858,0,0,1.1858748,-4.7663305,-5.3199577)"
       cx="23.997"
       cy="24.709"
       r="19.594" />
    <linearGradient
       inkscape:collect="always"
       xlink:href="#linearGradient3906-0"
       id="linearGradient3096"
       gradientUnits="userSpaceOnUse"
       gradientTransform="matrix(1.0490532,0,0,1.0492611,-51.250614,-2.623084)"
       x1="71.204"
       y1="6.2376"
       x2="71.204"
       y2="44.341" />
    <radialGradient
       inkscape:collect="always"
       xlink:href="#radialGradient9914"
       id="radialGradient3099"
       gradientUnits="userSpaceOnUse"
       gradientTransform="matrix(0,1.0507301,-1.1538536,0,54.16455,1.7911993)"
       cx="21.12"
       cy="26.141"
       fy="22.504"
       r="20.002" />
    <linearGradient
       inkscape:collect="always"
       xlink:href="#linearGradient9938"
       id="linearGradient3101"
       gradientUnits="userSpaceOnUse"
       gradientTransform="matrix(1.0236767,0,0,1.0238585,-0.56615201,-1.597085)"
       x1="21.375"
       y1="8.5399"
       x2="32.438"
       y2="44.332" />
    <radialGradient
       inkscape:collect="always"
       xlink:href="#radialGradient3909-0"
       id="radialGradient3105"
       gradientUnits="userSpaceOnUse"
       gradientTransform="matrix(0,1.4062197,-1.4873477,-3.8274945e-8,36.56983,-5.2754691)"
       cx="6.2973"
       cy="8.4498"
       r="20" />
    <linearGradient
       inkscape:collect="always"
       xlink:href="#linearGradient3911-1"
       id="linearGradient3107"
       gradientUnits="userSpaceOnUse"
       gradientTransform="matrix(1.0490532,0,0,1.0492611,-1.1751039,-1.1989849)"
       x1="24"
       y1="44"
       x2="24"
       y2="3.899" />
    <radialGradient
       inkscape:collect="always"
       xlink:href="#radialGradient4060"
       id="radialGradient3110"
       gradientUnits="userSpaceOnUse"
       gradientTransform="matrix(2.1647,0,0,0.75294,-111.56,36.518)"
       cx="62.625"
       cy="4.625"
       r="10.625" />
    <radialGradient
       cx="99.157013"
       cy="186.17059"
       r="62.769119"
       fx="99.157013"
       fy="186.17059"
       id="radialGradient3018"
       xlink:href="#linearGradient3820-7-2-1"
       gradientUnits="userSpaceOnUse"
       gradientTransform="matrix(0.27083381,0,0,0.08762273,-2.855072,25.187228)" />
    <linearGradient
       id="linearGradient3820-7-2-1">
      <stop
         id="stop3822-2-6-3"
         style="stop-color:#3d3d3d;stop-opacity:1"
         offset="0" />
      <stop
         id="stop3864-8-7-7"
         style="stop-color:#686868;stop-opacity:0.49803922"
         offset="0.5" />
      <stop
         id="stop3824-1-2-5"
         style="stop-color:#686868;stop-opacity:0"
         offset="1" />
    </linearGradient>
    <radialGradient
       r="62.769119"
       fy="186.17059"
       fx="99.157013"
       cy="186.17059"
       cx="99.157013"
       gradientTransform="matrix(0.27083381,0,0,0.08762273,-2.8550715,25.187287)"
       gradientUnits="userSpaceOnUse"
       id="radialGradient3153"
       xlink:href="#linearGradient3820-7-2-1"
       inkscape:collect="always" />
  </defs>
  <metadata
     id="metadata4067">
    <rdf:RDF>
      <cc:Work
         rdf:about="">
        <dc:format>image/svg+xml</dc:format>
        <dc:type
           rdf:resource="http://purl.org/dc/dcmitype/StillImage" />
        <dc:title />
      </cc:Work>
    </rdf:RDF>
  </metadata>
  <path
     inkscape:connector-curvature="0"
     d="m 41,41.500057 a 17,5.4999999 0 1 1 -33.9999995,0 17,5.4999999 0 1 1 33.9999995,0 z"
     id="path3818-0-5"
     style="fill:url(#radialGradient3153);fill-opacity:1;stroke:none" />
  <path
     inkscape:connector-curvature="0"
     d="m 24.002172,3.5245783 c -11.285716,0 -20.4544408,9.1707507 -20.4544408,20.4584907 0,11.28774 9.1685148,20.458492 20.4544408,20.458492 11.285924,0 20.454439,-9.170332 20.454439,-20.458492 0,-11.28816 -9.168515,-20.4584907 -20.454439,-20.4584907 z"
     style="color:#000000;fill:url(#radialGradient3105);stroke:url(#linearGradient3107);stroke-width:1.04915714;stroke-linecap:round;stroke-linejoin:round"
     id="path2555" />
  <path
     style="opacity:0.4"
     inkscape:connector-curvature="0"
     d="m 24.348359,4.2763739 -2.478178,0.2837831 -2.72607,0.7449229 c 0.231841,-0.081528 0.466829,-0.1705049 0.708111,-0.248465 l -0.318913,-0.5675454 -1.061641,0.1774301 -0.531871,0.4966153 -0.814065,0.106395 -0.743778,0.3546502 -0.353531,0.1774301 -0.105954,0.14186 -0.531871,0.1063951 -0.317863,0.6740453 -0.424867,-0.8513704 -0.141611,0.3547237 0.07081,0.9577549 -0.672664,0.5675559 -0.389429,1.0287054 h 0.814275 l 0.318629,-0.6739713 0.106206,-0.2483076 c 0.358032,-0.2536903 0.697442,-0.5362039 1.062061,-0.7803984 l 0.849734,0.2838251 c 0.553207,0.3765798 1.110318,0.7591089 1.663903,1.1350902 L 19.144894,7.7529428 18.223824,7.3627227 17.798958,6.5113523 16.241115,6.3340272 16.206496,6.1565971 16.878938,6.2985621 17.268137,5.908342 18.11787,5.7310169 c 0.201073,-0.097984 0.398871,-0.1685533 0.601853,-0.2483077 l -0.531052,0.4966153 1.911795,1.3125206 v 0.7803984 l -0.743464,0.7449226 0.991292,1.9864609 0.672664,-0.390199 0.84968,-1.3125209 c 1.194557,-0.3700533 2.271201,-0.8006592 3.398723,-1.3125202 l -0.07081,0.4966152 0.566446,0.390199 L 26.75629,8.001219 26.260644,7.4336632 25.58798,7.8238624 25.375558,7.7529184 c 0.04879,-0.022339 0.09261,-0.048237 0.141611,-0.070944 L 26.507478,5.1279689 24.348527,4.2767034 z m -9.700491,3.8310618 0.814276,0.5675554 h 0.672663 V 8.0010092 L 15.320532,7.6462855 14.647868,8.1074252 z M 33.446903,7.646296 31.995328,8.0010197 31.074847,8.6040506 v 0.5320916 l -1.451575,0.9222788 0.283223,1.38345 0.849681,-0.603031 0.531052,0.603031 0.601852,0.354725 0.389429,-1.028707 -0.212423,-0.603031 0.212423,-0.4256743 0.849681,-0.7803991 h 0.38943 l -0.38943,0.8513396 v 0.7803868 c 0.350216,-0.09551 0.703705,-0.13271 1.062061,-0.177367 l -0.991292,0.709447 -0.07081,0.425666 -1.132872,0.957754 -1.168331,-0.283783 v -0.673982 l -0.531052,0.354724 0.247828,0.603031 h -0.84968 l -0.460241,0.780398 -0.566446,0.638506 -1.026688,0.212833 0.601852,0.603031 0.141612,0.603031 H 27.64067 l -0.991293,0.532091 v 1.560776 h 0.460241 l 0.424835,0.46114 0.955887,-0.46114 0.354035,-0.957755 0.708069,-0.425665 0.141612,-0.354723 1.132872,-0.283783 0.637258,0.709447 0.672663,0.354724 -0.38944,0.780398 0.601863,-0.177367 0.318629,-0.780399 -0.77887,-0.886814 h 0.318629 l 0.77887,0.638507 0.141612,0.851339 0.672663,0.780399 0.177018,-1.135091 0.354034,-0.177368 c 0.376841,0.391974 0.673891,0.871339 0.991293,1.312521 l 1.168329,0.07095 0.672664,0.425674 -0.318629,0.46114 -0.672663,0.603032 h -0.991292 l -1.309954,-0.425665 -0.672663,0.07095 -0.495646,0.567567 -1.416117,-1.418916 -0.991293,-0.283783 -1.451574,0.177367 -1.274495,0.354723 c -0.727057,0.825874 -1.471402,1.660876 -2.159582,2.518541 l -0.814275,1.986462 0.389441,0.425674 -0.708069,1.028707 0.778869,1.809135 c 0.648105,0.734578 1.299988,1.464244 1.947148,2.199251 l 0.955887,-0.815863 0.38944,0.496615 1.026698,-0.673982 0.354034,0.390199 h 1.026688 l 0.601853,0.673982 -0.354035,1.206021 0.708069,0.815863 -0.03541,1.418916 0.531052,1.028706 -0.38943,0.886814 c -0.03797,0.636031 -0.07081,1.2439 -0.07081,1.880066 0.312366,0.8618 0.62553,1.721523 0.920481,2.589471 l 0.212423,1.383452 v 0.709447 h 0.566447 l 0.814275,-0.532091 h 0.991293 l 1.486927,-1.667171 -0.177017,-0.567566 0.991293,-0.886814 -0.743465,-0.815864 0.885077,-0.709447 0.84968,-0.532091 0.38943,-0.425664 -0.247818,-0.957756 c 0,-0.806336 2e-6,-1.605684 0,-2.412146 l 0.672664,-1.489845 0.849668,-0.92228 0.920482,-2.270286 v -0.603035 c -0.458059,0.05782 -0.897119,0.109941 -1.345305,0.141891 l 0.920481,-0.922289 1.274494,-0.85134 0.672663,-0.780398 v -0.851332 c -0.152563,-0.288285 -0.306638,-0.59853 -0.460241,-0.886815 l -0.601857,0.709448 -0.460241,-0.532081 -0.672664,-0.53209 v -1.099625 l 0.77887,0.886814 0.885086,-0.106416 c 0.39929,0.363191 0.782688,0.686132 1.132873,1.099626 l 0.566468,-0.638518 c 0,-0.687402 -0.772702,-4.08089 -2.442826,-6.952613 -1.670086,-2.870778 -4.6024,-5.4982329 -4.6024,-5.4982329 l -0.212423,0.390199 -0.77887,0.8513397 -0.991292,-1.0287067 h 0.991292 L 36.243574,8.3557431 34.401437,8.0021424 33.445749,7.6473872 z M 12.168956,8.1073413 11.815425,9.0292222 c 0,0 -0.619823,0.1025345 -0.77887,0.1418915 -2.0311767,1.8753433 -6.1272051,5.9432243 -7.0806895,13.5858303 0.037752,0.177201 0.6726633,1.206022 0.6726633,1.206022 l 1.5577391,0.922289 1.5577393,0.425664 0.6726634,0.815864 1.0266984,0.780398 0.601852,-0.106416 0.424835,0.212832 v 0.141892 l -0.566447,1.596241 -0.46024,0.673982 0.141611,0.319248 -0.354035,1.277056 1.309954,2.412146 1.345306,1.170555 0.601851,0.85134 -0.07081,1.77367 0.424836,0.993231 -0.424836,1.91553 c 0,0 -0.05669,-0.01575 0,0.177367 0.0572,0.193201 2.36656,1.492889 2.513637,1.383452 0.146532,-0.111537 0.283224,-0.212832 0.283224,-0.212832 l -0.141612,-0.425664 0.601853,-0.567556 0.212422,-0.603032 0.955887,-0.319248 0.743464,-1.844601 -0.212423,-0.496615 0.495646,-0.780398 1.132873,-0.248308 0.566447,-1.347986 -0.141612,-1.66717 0.885086,-1.241486 0.141612,-1.277055 c -1.214381,-0.603378 -2.40579,-1.223335 -3.611153,-1.844601 l -0.601852,-1.170557 -1.09752,-0.248307 -0.601853,-1.59624 -1.451574,0.177367 -1.274495,-0.92228 -1.345306,1.170556 v 0.177367 C 10.066108,26.295242 9.588788,26.277405 9.230327,26.05706 L 8.9471033,25.205721 v -0.92228 L 8.0266221,24.389857 C 8.100698,23.802387 8.1998523,23.203563 8.27444,22.616187 H 7.7433882 l -0.5310517,0.673982 -0.4956462,0.248307 -0.7434641,-0.425664 -0.070807,-0.92228 0.1416117,-0.99323 1.0975195,-0.851338 h 0.8850758 l 0.1770173,-0.496615 1.0975194,0.248307 0.814275,1.028706 0.141612,-1.702636 1.416116,-1.170556 0.495647,-1.241486 1.062061,-0.425664 0.566447,-0.851338 1.345306,-0.248308 0.672664,-0.993231 h -2.017959 l 1.274494,-0.603031 h 0.885077 l 1.132872,-0.390199 0.212423,1.099625 0.495646,-0.780398 -0.566457,-0.390199 0.141611,-0.461139 -0.46024,-0.425675 -0.495647,-0.141893 0.141612,-0.53209 -0.38944,-0.744923 -0.885086,0.354724 0.141612,-0.673972 -1.026698,-0.603031 -0.814275,1.418915 0.07081,0.496615 -0.814276,0.354724 -0.495646,1.099626 -0.247817,-1.028705 -1.380765,-0.567557 -0.247818,-0.780398 1.876337,-1.06416 0.814275,-0.7803989 0.07081,-0.922279 -0.46024,-0.2483078 -0.601852,-0.070944 z m 15.188193,1.702636 v 0.5675547 l 0.318628,0.354724 v 0.85134 l -0.177017,1.13509 0.920482,-0.177367 0.672663,-0.673972 -0.601852,-0.567566 C 28.294876,10.779022 28.097078,10.309414 27.852794,9.8099353 h -0.495645 z m -0.77887,1.1350897 -0.566447,0.177367 0.141612,1.028696 0.743464,-0.390199 -0.318629,-0.815864 z m 10.373143,9.329295 0.849681,0.993231 1.026698,2.19925 0.637258,0.709448 -0.318629,0.744923 0.566447,0.673982 c -0.259945,0.01724 -0.511686,0.03548 -0.77887,0.03548 -0.485365,-1.021918 -0.869497,-2.05246 -1.239141,-3.121552 l -0.637258,-0.709447 -0.354035,-1.277056 0.247828,-0.248308 z"
     id="path6534" />
  <path
     inkscape:connector-curvature="0"
     style="fill:url(#radialGradient3099);stroke:url(#linearGradient3101);stroke-width:1.04915714"
     d="m 7.8033206,7.8629578 c 0,0 0.2328793,2.8324802 2.2207404,4.0134222 2.206579,-0.631161 4.821449,0.01479 4.821449,0.01479 0,0 1.746464,-2.3452036 5.602364,-2.3638805 -2.78618,1.7552035 -2.828248,4.1037645 -2.828248,4.1037645 0.786549,1.583754 1.181444,1.881955 4.206599,1.832744 1.559208,-0.02538 1.663589,0.05126 1.242814,1.561825 -0.313877,1.127011 -2.9427,1.521324 -3.983465,3.043906 0.417156,1.634224 0.335582,2.999943 0.335582,2.999943 -4.778019,-2.327681 -5.477108,4.000307 -0.07266,4.000307 2.313267,0 6.107168,-3.282298 8.824531,-0.02731 0.992593,1.189023 -1.17987,0.919321 -1.832381,1.24306 -2.002958,0.993829 -2.48804,3.8127 -7.95623,3.44976 19.54806,7.840083 26.379494,-19.07766 12.816285,-26.9103929 9.692203,3.8587621 13.172962,12.2847469 13.27472,19.0052639 0,12.718093 -10.296143,20.645261 -20.475421,20.645261 -10.179278,0 -20.4754214,-7.926958 -20.4754214,-20.541384 0,-5.039286 1.955645,-8.669729 1.955645,-8.669729 C 5.2541632,8.9973878 7.8030373,7.8622968 7.8030373,7.8622968 z"
     id="path10380-0-8" />
  <path
     inkscape:connector-curvature="0"
     d="m 9.9543,10.590511 c 0.107108,-0.112364 0.215559,-0.22344 0.325311,-0.333203 3.512126,-3.5126106 8.363997,-5.6851055 13.723715,-5.6851055 10.717128,0 19.407484,8.6901885 19.407484,19.4102785 -9.99e-4,10.72135 -8.690356,19.412379 -19.408533,19.412379 -10.718177,0 -19.4074857,-8.691029 -19.4074857,-19.412379"
     style="opacity:0.5;color:#000000;fill:none;stroke:url(#linearGradient3096);stroke-width:1.04915714;stroke-linecap:round;stroke-linejoin:round"
     id="path8655" />
  <path
     inkscape:connector-curvature="0"
     style="opacity:0.5;fill:none;stroke:url(#radialGradient3093);stroke-width:1.04915714;stroke-linejoin:round"
     xlink:href="#path10380-0-8"
     d="m 35.574278,7.7197338 c 1.438462,1.9150067 2.525806,3.7080882 3.11443,5.1478842 0.990075,2.422219 1.049053,4.065887 1.049053,4.065887 a 0.95273966,0.95292836 0 0 1 -1.442449,0.852524 c 0.547354,3.339483 0.819573,6.525144 0.819573,6.525144 a 0.95273966,0.95292836 0 0 1 -1.6061,0.720842 c -0.08389,2.412671 -0.494808,4.334078 -1.180186,5.475884 -0.465086,0.774785 -0.967793,1.311576 -1.376881,1.63947 -0.409089,0.327884 -0.78679,0.491841 -0.78679,0.491841 a 0.95273966,0.95292836 0 0 1 -1.311317,-0.885313 c -1.772796,1.734638 -3.761276,2.928382 -5.868194,3.377361 -3.13048,0.667099 -6.42199,-0.186496 -9.343079,-2.459258 a 0.95273966,0.95292836 0 0 1 0.655659,-1.70505 c 2.637005,0.175028 3.85527,-0.358123 4.786305,-1.04926 0.931004,-0.691138 1.564663,-1.73852 2.884897,-2.393575 0.349576,-0.173453 0.619424,-0.195162 0.885138,-0.229525 -0.334752,-0.237951 -0.664249,-0.587524 -1.01627,-0.655788 -0.587679,-0.113961 -1.271872,-0.06114 -1.999706,0.131157 -1.455875,0.384596 -2.953189,1.311576 -4.589607,1.311576 -3.140865,0 -4.961917,-2.012797 -4.819141,-3.967465 0.0714,-0.977355 0.675926,-1.922036 1.671981,-2.328101 0.606132,-0.247069 1.330514,-0.215445 2.098106,-0.06558 -0.02823,-0.516657 0.04896,-0.70715 -0.163914,-1.541156 a 0.95273966,0.95292836 0 0 1 0.131132,-0.754155 c 0.724045,-1.05923 1.835947,-1.592884 2.688199,-2.032944 0.426146,-0.220009 0.785919,-0.426692 1.01627,-0.590209 0.230351,-0.163517 0.270813,-0.260217 0.262263,-0.229526 0.04953,-0.177829 0.03614,-0.235413 0.06557,-0.360683 -0.138474,-0.0029 -0.222619,-0.03611 -0.426177,-0.03279 -1.581134,0.02573 -2.541857,0.0021 -3.409424,-0.393472 -0.867514,-0.395603 -1.348138,-1.150096 -1.770277,-2.000102 a 0.95273966,0.95292836 0 0 1 -0.09835,-0.459051 c 0,0 0.01917,-0.797324 0.458961,-1.770629 0.115773,-0.256208 0.344562,-0.571249 0.524526,-0.852525 -1.404052,0.603588 -2.098106,1.442735 -2.098106,1.442735 a 0.95273966,0.95292836 0 0 1 -0.983491,0.360682 c 0,0 -2.55885,-0.576182 -4.458475,-0.03279 a 0.95273966,0.95292836 0 0 1 -0.75427,-0.09863 C 7.9178248,11.622827 7.2022656,10.448704 6.7910366,9.4561031 6.3281944,10.3826 5.8646177,12.036236 5.9714113,14.998299 a 0.95273966,0.95292836 0 0 1 -0.098349,0.491841 c 0,0 -1.901409,3.50852 -1.901409,8.426826 0,12.408561 10.0932557,20.099644 20.0306237,20.099644 9.937576,0 20.030621,-7.679017 20.030621,-20.198275 -0.08288,-5.378512 -2.399184,-11.833566 -8.459564,-16.0998604 z"
     id="path9948" />
</svg>
